<?xml version="1.0" encoding="utf-8"?>
<!-- Generator: Adobe Illustrator 19.1.0, SVG Export Plug-In . SVG Version: 6.00 Build 0)  -->
<svg version="1.1" id="Layer_1" xmlns="http://www.w3.org/2000/svg" xmlns:xlink="http://www.w3.org/1999/xlink" x="0px" y="0px"
	 width="200px" height="42.4px" viewBox="0 0 200 42.4" style="enable-background:new 0 0 200 42.4;" xml:space="preserve">
<style type="text/css">
	.st0{fill:#FFFFFF;}
</style>
<g>
	<path class="st0" d="M145.2,31.2c-0.5,4.5-1.6,4.4-3,4.7c-1.3,0.3-0.8,1.1,0,1c0.3,0,2.6-0.3,4.1-0.3c2.2,0,4.1,0.2,5.2,0.2
		c0.4,0,1-0.6,0-0.9c-1.2-0.3-4.3,0-4.5-5.4c-0.2-4,0.1-17.5,0.1-17.5c0-0.9,0.1-1.1,0.3-1.1c0.3,0,0.6,0.5,0.9,0.9l18.8,23.9
		c2,2.3,2.1,1.6,2.1-0.7c-0.1-7.5,0.1-28.3,0.1-28.3c0.1-4.1,3.7-2.4,3.7-3.7c0-0.3-0.2-0.4-0.4-0.4c-1.1,0-4.1,0.3-5.6,0.3
		c-1.4,0-2.2-0.2-3.6-0.2c-0.3,0-0.5,0.1-0.5,0.5c0,1.3,4.8-0.9,4.6,5.9l0,19.6c0,0.4,0,1.1-0.7,0L147.2,5c-0.3-0.3-0.7-1.1-1.1-1.1
		c-0.7,0-2.8,0.2-3.5,0.2c-0.7,0-1.4-0.2-2.1-0.2c-0.2,0-0.7,0.2-0.7,0.5c0.2,1.7,5.4-0.3,5.5,7.4C145.3,11.8,145.4,29.3,145.2,31.2
		"/>
	<path class="st0" d="M175.8,0c-0.6,0.2-1.5,1-1.9,1.2c-0.4,0.3-0.4,0.8-0.2,1.3c1.1,2.1,2.2,5.6-0.5,9.9c-0.5,0.7-1.1,0.9-0.8,1.2
		c0.4,0.3,1.6-0.5,2.2-1.1c2.9-2.9,4-7.9,2.3-11.5C176.6,0.3,176.4-0.2,175.8,0"/>
	<path class="st0" d="M179.7,34.4c0.2,0.8,4,2.5,7.4,2.5c10.4,0,12.9-5.7,12.9-9.6c0-12.4-17.7-7.9-17.7-16.7c0-4.3,3.3-6.1,7-6.1
		c4,0,7.3,2.6,8.5,5.8c0.2,0.4,0.4,1.4,0.9,1.4c0.5,0,0.4-0.3,0.3-0.7l-0.7-6.5c0-0.5-0.3-0.7-0.6-0.7c-0.5,0-0.7,0.8-1.6,0.7
		c-0.6-0.1-1.7-1.4-6.5-1.4c-5.3,0-9.8,3.2-9.8,9.2c0,11.8,17.2,7.3,17.3,16c0,4.9-3.1,7.5-7.5,7.5c-6.3,0-9.1-4.9-9.7-7.1
		c-0.2-1-0.3-1.5-0.8-1.4c-0.5,0.1-0.4,0.6-0.2,1.5C179,28.5,179.6,30.5,179.7,34.4"/>
	<path class="st0" d="M124,5c9.1,0,14.7,8.2,14.7,16.9c0,8.9-5.8,14.3-12.6,14.3c-9.3,0-14.7-8.4-14.7-17.3
		C111.3,11.4,116.1,5,124,5 M124.3,37.8c10.5,0,17.7-7,17.7-17.7c0-9.9-7.4-17-16.9-17c-9.6,0-17.2,7.2-17.2,17.2
		C107.9,30.4,114.1,37.8,124.3,37.8"/>
	<path class="st0" d="M87.6,6.6c0-1.8,1-1.6,2.5-1.6c4.2,0,8.4,2.1,8.4,7.8c0,5.8-4.4,6.7-6.3,6.7c-2,0-4.6,0.2-4.6-0.7L87.6,6.6z
		 M96.4,19.9c3-1.3,5.8-4.3,5.8-8c0-9.1-9.8-8.6-10.5-8.6c-2.2,0-5.1,0.4-7.5,0.4c-2.2,0-3.1-0.2-3.9-0.2c-0.5,0-0.8,0.3-0.8,0.6
		c0,1.6,4.9-0.8,4.8,4.3v24c0,3.6-2.5,3.3-3,3.7c-0.2,0.2-0.5,0.8-0.2,0.8c1.6,0,3.4-0.2,5-0.2c3.5,0,5.7,0.2,6.1,0.3
		c0.6,0.2,0.9-0.6,0.2-0.9c-0.9-0.3-4.7,0.2-4.7-3.7v-9.9c0-0.5-0.3-1.3,1.1-1.3c4.3-0.1,4.2-0.4,4.9,0.7c0,0,8.2,10,12.6,14.2
		c3.9,3.7,8.7,6.2,11.8,6.4c4.2,0.2,6.4-0.5,6.4-1.1c0-1.1-3.6,2-13.5-5.9c-6-4.8-13.3-13.8-14.5-15.3C96.4,20,96.5,19.9,96.4,19.9"
		/>
	<path class="st0" d="M60.3,6.6c0-1.8,0.9-1.7,2.5-1.7c4.5-0.2,8.6,2,8.6,7.7c0,5.8-4.1,6.9-6,6.9c-2,0-5.1,0.3-5.1-0.6L60.3,6.6z
		 M69,19.8c3-1.3,6.2-4.4,6.2-8.1c0-9.1-10.5-8.4-11.2-8.4c-2.3,0-4.8,0.4-7.3,0.4c-2.2,0-2.9-0.2-3.7-0.2c-0.5,0-0.9,0.3-0.9,0.6
		c0,1.3,4.7-0.8,4.7,4.2v24c0,3.7-2.6,3.6-3.5,3.6c-1.1,0,0.5,1,0.7,1c1.6,0,2.9-0.4,4.6-0.4c3.6,0,6,0.4,6.4,0.4
		c1,0.2,1.2-0.6,0.2-0.8c-1.6-0.4-5-0.3-5.1-4.2l0-9.5c0-0.5-0.3-1.3,1.1-1.3c4.9,0,4.5-0.2,6,2.4l5.4,8.3c1.6,2.7,3.3,5.1,6.5,5.1
		c0.4,0,3.4,0.1,3.3-0.5c0-0.6,0.6-0.9-0.7-0.7c-1,0.2-3-0.6-5.1-3.9L69,20.1C68.9,20,69,19.8,69,19.8"/>
	<path class="st0" d="M37.8,8.7c0.3-0.6,0.5-0.6,0.7,0L43,21.1c0.2,0.6,0.3,1-0.7,1h-9.1c-0.6,0-0.9-0.2-0.6-0.9L37.8,8.7z M46,29.3
		c0.4,1.3,0.8,2.8,1.2,3.8c0.9,2.1-1.3,2.9-2.2,2.8c-0.7-0.1-0.5,1.2,0.7,1c1.2-0.2,2.6-0.3,3.8-0.3c1.8,0,3.3,0.3,5.1,0.3
		c0.3,0,1.2-0.8,0.4-1c-0.6-0.1-2.2-0.1-3.2-1.9c-1-1.7-1.6-3.7-2.3-5.4L40.1,3.7c-0.1-0.4-0.4-1.8-0.9-1.8c-0.6,0-0.7,0.8-3.3,6.9
		L25.6,33.4c-1.1,2.8-3.5,1.9-3.5,2.9c0,0.3,0.4,0.6,0.7,0.6c1.1,0,2.4-0.3,3.6-0.3c1.2,0,2.4,0,4,0.3c1.1,0.2,1.3-0.7,0.4-1
		c-1.2-0.3-3.1-0.8-2.8-3c0.4-2.9,2.9-7.9,2.9-7.9c0.4-1,1.5-1.4,2.3-1.4h9.6c1.2,0,1.5,0.5,1.9,1.6L46,29.3z"/>
	<path class="st0" d="M7.2,8.7c0-2.7-0.2-3.5,2.7-3.5c5.5-0.1,9.4,3,9.3,8c-0.1,2.8-1.9,5.2-7.9,5.1c-4.1-0.1-4-0.3-4-1.8V8.7z
		 M7.2,20.5c0-0.4-0.2-1.1,3.3-1.1c10.5,0,10.7,6.2,10.7,9.2c0,2.8-0.9,7.2-8,7.2c-6.5,0.1-6.1-1.3-6.1-4.7V20.5z M3.9,31.5
		c0,3.7-1.6,4.1-2.1,4.2c-0.8,0.3-1.7,0-1.6,0.9c0,0.4,1.1,0.4,1.4,0.4c2.1,0,3.4-0.1,5.5-0.1c1.6,0,5.4,0.4,7.1,0.4
		c8.9,0,10.8-6.8,10.8-10.3c0-6.7-7.2-7.7-7.2-8.4c0-0.3,4.5-2.1,4.5-6.9c0-3.5-2.2-8-10.3-8c-3.7,0-4.4,0.3-6.2,0.3
		C4,3.9,1.4,3.5,0.5,3.5c-0.6,0-0.8,0.6,0.2,1c0.9,0.4,3.2,0.2,3.2,3.8V31.5z"/>
</g>
</svg>
